<svg xmlns="http://www.w3.org/2000/svg" width="1180" height="394" viewBox="0 0 1180 394" font-family="ui-monospace,SFMono-Regular,Menlo,Consolas,monospace">
<style>
      .bg{fill:#fbfbfd}.title{fill:#151823;font-size:15px;font-weight:700}
      .sub{fill:#6b7280;font-size:10.5px}.note{fill:#8a90a0;font-size:10px}
      .lane{fill:#ffffff;stroke:#e7e9f0}.lane.alt{fill:#f7f8fc;stroke:#e7e9f0}
      .zero{stroke:#c9cede;stroke-dasharray:2 3}.grid{stroke:#e7e9f0}
      .axis{stroke:#aeb4c6}.tick{fill:#8a90a0;font-size:9.5px}
      .ellbl{fill:#151823;font-size:11.5px;font-weight:700}
      .elmeta{fill:#8a90a0;font-size:9px}.chlbl{fill:#6b7280;font-size:9.5px}
      .seglbl{fill:#151823;font-size:9.5px}.seglbl.thin{fill:#5a6070;font-size:9px}
      .stub{stroke:#aeb4c6;stroke-width:.8;stroke-dasharray:1 2}
      .acq{fill:url(#hatch);stroke:#12b886;stroke-dasharray:3 2}
      .acqlbl{fill:#0b7a5c;font-size:9px}
      .mk.align{stroke:#e64980}.mk.pause{stroke:#f76707}.mk.branch{stroke:#ae3ec9}
      .mklbl{font-size:10px;fill:#6b7280}.mklbl.align{fill:#e64980}
      .mklbl.branch{fill:#ae3ec9}.mklbl.pause{fill:#f76707}
      .brk{fill:url(#zig);stroke:none}.brklbl{fill:#8a90a0;font-size:9px}
      .gap{fill:url(#gapzig);stroke:#c9cede;stroke-dasharray:2 2}
      .gaplbl{fill:#8a90a0;font-size:8.5px}
    
      .wave{fill-opacity:.32;stroke-width:1.1;stroke-linejoin:round}
      .seg{fill:transparent;stroke:none;pointer-events:all}
      .seg.rt{fill:#ae3ec9;fill-opacity:.07}
      .acq{fill-opacity:.5;stroke-width:1}
      .mk{stroke-width:1;stroke-dasharray:3 3;opacity:.75}
      text{font-family:ui-monospace,SFMono-Regular,Menlo,Consolas,monospace}
    @media (prefers-color-scheme: dark){
      .bg{fill:#0f1117}.title{fill:#f2f4f8}.sub{fill:#9aa1b2}.note{fill:#767d8f}
      .lane{fill:#161923;stroke:#242938}.lane.alt{fill:#12151e;stroke:#242938}
      .zero{stroke:#39405a}.grid{stroke:#232838}.axis{stroke:#4a5268}
      .tick{fill:#8a92a6}.ellbl{fill:#f2f4f8}.elmeta{fill:#767d8f}
      .chlbl{fill:#9aa1b2}.seglbl{fill:#e7eaf2}.acqlbl{fill:#3ddbaa}
      .mklbl{fill:#9aa1b2}
    }</style>
<defs><pattern id="hatch" width="6" height="6" patternUnits="userSpaceOnUse" patternTransform="rotate(45)"><rect width="6" height="6" fill="#12b886" fill-opacity="0.10"/><line x1="0" y1="0" x2="0" y2="6" stroke="#12b886" stroke-width="1.6" stroke-opacity="0.35"/></pattern><pattern id="zig" width="6" height="6" patternUnits="userSpaceOnUse" patternTransform="rotate(20)"><rect width="6" height="6" fill="#8a90a0" fill-opacity="0.10"/><line x1="0" y1="0" x2="0" y2="6" stroke="#8a90a0" stroke-width="2" stroke-opacity="0.45"/></pattern><pattern id="gapzig" width="7" height="7" patternUnits="userSpaceOnUse"><path d="M0,7 L3.5,0 L7,7" fill="none" stroke="#aeb4c6" stroke-width="1" stroke-opacity="0.55"/></pattern></defs>
<rect class="bg" x="0" y="0" width="1180" height="394"/>
<text class="title" x="14" y="24">power_rabi.py</text>
<text class="sub" x="14" y="40">2 elements, 4 pulses, 4 measurements, 40.16 us total  |  envelope, 2 iteration(s) per loop</text>
<line class="grid" x1="190.0" y1="72" x2="190.0" y2="320"/>
<text class="tick" x="190.0" y="335" text-anchor="middle">0 ns</text>
<line class="grid" x1="294.8" y1="72" x2="294.8" y2="320"/>
<text class="tick" x="294.8" y="335" text-anchor="middle">500 ns</text>
<line class="grid" x1="399.6" y1="72" x2="399.6" y2="320"/>
<text class="tick" x="399.6" y="335" text-anchor="middle">1 us</text>
<line class="grid" x1="530.4" y1="72" x2="530.4" y2="320"/>
<text class="tick" x="530.4" y="335" text-anchor="middle">10.5 us</text>
<line class="grid" x1="635.2" y1="72" x2="635.2" y2="320"/>
<text class="tick" x="635.2" y="335" text-anchor="middle">11 us</text>
<line class="grid" x1="766.0" y1="72" x2="766.0" y2="320"/>
<text class="tick" x="766.0" y="335" text-anchor="middle">20.5 us</text>
<line class="grid" x1="870.8" y1="72" x2="870.8" y2="320"/>
<text class="tick" x="870.8" y="335" text-anchor="middle">21 us</text>
<line class="grid" x1="1001.7" y1="72" x2="1001.7" y2="320"/>
<text class="tick" x="1001.7" y="335" text-anchor="middle">30.5 us</text>
<line class="grid" x1="1106.5" y1="72" x2="1106.5" y2="320"/>
<text class="tick" x="1106.5" y="335" text-anchor="middle">31 us</text>
<line class="axis" x1="190" y1="320" x2="1166" y2="320"/>
<rect class="lane" x="190" y="72" width="976" height="62"/>
<line class="zero" x1="190" y1="103.0" x2="1166" y2="103.0"/>
<rect x="14" y="76" width="3" height="54" fill="#4c6ef5" rx="1.5"/>
<text class="ellbl" x="24" y="88">qubit<title>qubit</title></text>
<text class="elmeta" x="24" y="101">IF 50 MHz  I:con…<title>IF 50 MHz  I:con1/1 Q:con1/2</title></text>
<text class="chlbl" x="184" y="106" text-anchor="end">I &#177;0.0624V</text>
<polygon class="wave" fill="#4c6ef5" stroke="#4c6ef5" points="190,103.00 433,103.00 434,99.63 435,93.68 436,85.60 437,81.00 438,81.00 439,82.97 440,90.46 441,97.69 442,101.48 443,103.00 921,103.00 922,99.63 923,93.68 924,85.60 925,81.00 926,81.00 927,82.97 928,90.46 929,97.69 930,101.48 931,103.00 1166,103.00 1166,103.00 931,103.00 930,103.00 929,103.00 928,103.00 927,103.00 926,103.00 925,103.00 924,103.00 923,103.00 922,103.00 921,103.00 443,103.00 442,103.00 441,103.00 440,103.00 439,103.00 438,103.00 437,103.00 436,103.00 435,103.00 434,103.00 433,103.00 190,103.00"/>
<rect class="seg" x="190.0" y="74" width="8.4" height="58"><title>x180  (pi_pulse)
0 ns -&gt; 40 ns   40 ns
amp x0
IF 50 MHz
iteration 0.0
power_rabi.py:26</title></rect>
<text class="seglbl thin" x="192.0" y="84">x180*amp(a=0)</text>
<line class="stub" x1="190.0" y1="86" x2="190.0" y2="130"/>
<rect class="seg" x="434.0" y="74" width="8.4" height="58"><title>x180  (pi_pulse)
10.04 us -&gt; 10.08 us   40 ns
amp x0.25
IF 50 MHz
iteration 0.1
power_rabi.py:26</title></rect>
<text class="seglbl thin" x="436.0" y="84">x180*amp(a=0.25)</text>
<line class="stub" x1="434.0" y1="86" x2="434.0" y2="130"/>
<rect class="seg" x="678.0" y="74" width="8.4" height="58"><title>x180  (pi_pulse)
20.08 us -&gt; 20.12 us   40 ns
amp x0
IF 50 MHz
iteration 1.0
power_rabi.py:26</title></rect>
<text class="seglbl thin" x="680.0" y="84">x180*amp(a=0)</text>
<line class="stub" x1="678.0" y1="86" x2="678.0" y2="130"/>
<rect class="seg" x="922.0" y="74" width="8.4" height="58"><title>x180  (pi_pulse)
30.12 us -&gt; 30.16 us   40 ns
amp x0.25
IF 50 MHz
iteration 1.1
power_rabi.py:26</title></rect>
<text class="seglbl thin" x="924.0" y="84">x180*amp(a=0.25)</text>
<line class="stub" x1="922.0" y1="86" x2="922.0" y2="130"/>
<rect class="lane alt" x="190" y="134" width="976" height="62"/>
<line class="zero" x1="190" y1="165.0" x2="1166" y2="165.0"/>
<text class="chlbl" x="184" y="168" text-anchor="end">Q &#177;0.000378V</text>
<polygon class="wave" fill="#4c6ef5" stroke="#4c6ef5" points="190,165.00 433,165.00 434,154.20 435,144.80 436,143.00 437,145.24 438,162.73 439,165.00 440,165.00 441,165.00 442,165.00 443,165.00 921,165.00 922,154.20 923,144.80 924,143.00 925,145.24 926,162.73 927,165.00 928,165.00 929,165.00 930,165.00 931,165.00 1166,165.00 1166,165.00 931,165.00 930,170.81 929,179.80 928,187.00 927,187.00 926,179.48 925,165.00 924,165.00 923,165.00 922,165.00 921,165.00 443,165.00 442,170.81 441,179.80 440,187.00 439,187.00 438,179.48 437,165.00 436,165.00 435,165.00 434,165.00 433,165.00 190,165.00"/>
<rect class="seg" x="190.0" y="136" width="8.4" height="58"><title>x180  (pi_pulse)
0 ns -&gt; 40 ns   40 ns
amp x0
IF 50 MHz
iteration 0.0
power_rabi.py:26</title></rect>
<rect class="seg" x="434.0" y="136" width="8.4" height="58"><title>x180  (pi_pulse)
10.04 us -&gt; 10.08 us   40 ns
amp x0.25
IF 50 MHz
iteration 0.1
power_rabi.py:26</title></rect>
<rect class="seg" x="678.0" y="136" width="8.4" height="58"><title>x180  (pi_pulse)
20.08 us -&gt; 20.12 us   40 ns
amp x0
IF 50 MHz
iteration 1.0
power_rabi.py:26</title></rect>
<rect class="seg" x="922.0" y="136" width="8.4" height="58"><title>x180  (pi_pulse)
30.12 us -&gt; 30.16 us   40 ns
amp x0.25
IF 50 MHz
iteration 1.1
power_rabi.py:26</title></rect>
<rect class="lane" x="190" y="196" width="976" height="62"/>
<line class="zero" x1="190" y1="227.0" x2="1166" y2="227.0"/>
<rect x="14" y="200" width="3" height="54" fill="#12b886" rx="1.5"/>
<text class="ellbl" x="24" y="212">resonator<title>resonator</title></text>
<text class="elmeta" x="24" y="225">IF 60 MHz  I:con…<title>IF 60 MHz  I:con1/3 Q:con1/4</title></text>
<text class="chlbl" x="184" y="230" text-anchor="end">I &#177;0.08V</text>
<polygon class="wave" fill="#12b886" stroke="#12b886" points="190,227.00 197,227.00 198,205.00 366,205.00 367,227.00 441,227.00 442,205.00 610,205.00 611,227.00 685,227.00 686,205.00 854,205.00 855,227.00 929,227.00 930,205.00 1098,205.00 1099,227.00 1166,227.00 1166,227.00 1099,227.00 1098,227.00 930,227.00 929,227.00 855,227.00 854,227.00 686,227.00 685,227.00 611,227.00 610,227.00 442,227.00 441,227.00 367,227.00 366,227.00 198,227.00 197,227.00 190,227.00"/>
<rect class="seg" x="198.4" y="198" width="167.7" height="58"><title>readout  (readout_pulse)
40 ns -&gt; 840 ns   800 ns
amp x1
IF 60 MHz
iteration 0.0
power_rabi.py:28</title></rect>
<text class="seglbl" x="282.2" y="208" text-anchor="middle">readout</text>
<rect class="seg" x="442.4" y="198" width="167.7" height="58"><title>readout  (readout_pulse)
10.08 us -&gt; 10.88 us   800 ns
amp x1
IF 60 MHz
iteration 0.1
power_rabi.py:28</title></rect>
<text class="seglbl" x="526.2" y="208" text-anchor="middle">readout</text>
<rect class="seg" x="686.4" y="198" width="167.7" height="58"><title>readout  (readout_pulse)
20.12 us -&gt; 20.92 us   800 ns
amp x1
IF 60 MHz
iteration 1.0
power_rabi.py:28</title></rect>
<text class="seglbl" x="770.2" y="208" text-anchor="middle">readout</text>
<rect class="seg" x="930.4" y="198" width="167.7" height="58"><title>readout  (readout_pulse)
30.16 us -&gt; 30.96 us   800 ns
amp x1
IF 60 MHz
iteration 1.1
power_rabi.py:28</title></rect>
<text class="seglbl" x="1014.2" y="208" text-anchor="middle">readout</text>
<rect class="lane alt" x="190" y="258" width="976" height="62"/>
<line class="zero" x1="190" y1="289.0" x2="1166" y2="289.0"/>
<text class="chlbl" x="184" y="292" text-anchor="end">Q flat 0V</text>
<polygon class="wave" fill="#12b886" stroke="#12b886" points="190,289.00 1166,289.00 1166,289.00 190,289.00"/>
<rect class="seg" x="198.4" y="260" width="167.7" height="58"><title>readout  (readout_pulse)
40 ns -&gt; 840 ns   800 ns
amp x1
IF 60 MHz
iteration 0.0
power_rabi.py:28</title></rect>
<rect class="seg" x="442.4" y="260" width="167.7" height="58"><title>readout  (readout_pulse)
10.08 us -&gt; 10.88 us   800 ns
amp x1
IF 60 MHz
iteration 0.1
power_rabi.py:28</title></rect>
<rect class="seg" x="686.4" y="260" width="167.7" height="58"><title>readout  (readout_pulse)
20.12 us -&gt; 20.92 us   800 ns
amp x1
IF 60 MHz
iteration 1.0
power_rabi.py:28</title></rect>
<rect class="seg" x="930.4" y="260" width="167.7" height="58"><title>readout  (readout_pulse)
30.16 us -&gt; 30.96 us   800 ns
amp x1
IF 60 MHz
iteration 1.1
power_rabi.py:28</title></rect>
<rect class="gap" x="408.0" y="72" width="26" height="248"><title>idle 9 us collapsed
1.04 us -> 10.04 us</title></rect>
<text class="gaplbl" x="421.0" y="335" text-anchor="middle">9 us</text>
<rect class="gap" x="652.0" y="72" width="26" height="248"><title>idle 9 us collapsed
11.08 us -> 20.08 us</title></rect>
<text class="gaplbl" x="665.0" y="335" text-anchor="middle">9 us</text>
<rect class="gap" x="896.0" y="72" width="26" height="248"><title>idle 9 us collapsed
21.12 us -> 30.12 us</title></rect>
<text class="gaplbl" x="909.0" y="335" text-anchor="middle">9 us</text>
<rect class="gap" x="1140.0" y="72" width="26" height="248"><title>idle 9 us collapsed
31.16 us -> 40.16 us</title></rect>
<text class="gaplbl" x="1153.0" y="335" text-anchor="middle">9 us</text>
<rect class="acq" x="240.3" y="198" width="167.7" height="120"><title>dual_demod.full(cos, out1, sin, out2, I); dual_demod.full(minus_sin, out1, cos, out2, Q)
ADC window 240 ns - 1.04 us (800 ns)
power_rabi.py:28</title></rect>
<text class="acqlbl" x="244.3" y="209">acquire</text>
<rect class="acq" x="484.3" y="198" width="167.7" height="120"><title>dual_demod.full(cos, out1, sin, out2, I); dual_demod.full(minus_sin, out1, cos, out2, Q)
ADC window 10.28 us - 11.08 us (800 ns)
power_rabi.py:28</title></rect>
<text class="acqlbl" x="488.3" y="209">acquire</text>
<rect class="acq" x="728.3" y="198" width="167.7" height="120"><title>dual_demod.full(cos, out1, sin, out2, I); dual_demod.full(minus_sin, out1, cos, out2, Q)
ADC window 20.32 us - 21.12 us (800 ns)
power_rabi.py:28</title></rect>
<text class="acqlbl" x="732.3" y="209">acquire</text>
<rect class="acq" x="972.3" y="198" width="167.7" height="120"><title>dual_demod.full(cos, out1, sin, out2, I); dual_demod.full(minus_sin, out1, cos, out2, Q)
ADC window 30.36 us - 31.16 us (800 ns)
power_rabi.py:28</title></rect>
<text class="acqlbl" x="976.3" y="209">acquire</text>
<line class="mk align" x1="198.4" y1="72" x2="198.4" y2="320"/>
<text class="mklbl align" x="198.4" y="66" text-anchor="middle">A<title>align
qubit, resonator
40 ns  power_rabi.py:27</title></text>
<line class="mk align" x1="442.4" y1="72" x2="442.4" y2="320"/>
<text class="mklbl align" x="442.4" y="66" text-anchor="middle">A<title>align
qubit, resonator
10.08 us  power_rabi.py:27</title></text>
<line class="mk align" x1="686.4" y1="72" x2="686.4" y2="320"/>
<text class="mklbl align" x="686.4" y="66" text-anchor="middle">A<title>align
qubit, resonator
20.12 us  power_rabi.py:27</title></text>
<line class="mk align" x1="930.4" y1="72" x2="930.4" y2="320"/>
<text class="mklbl align" x="930.4" y="66" text-anchor="middle">A<title>align
qubit, resonator
30.16 us  power_rabi.py:27</title></text>
<rect class="brk" x="673.0" y="72" width="10" height="248"><title>for_each_ at power_rabi.py:25</title></rect>
<text class="brklbl" x="686.0" y="67">&#215;2 more</text>
<rect class="brk" x="1161.0" y="72" width="10" height="248"><title>for_each_ at power_rabi.py:25</title></rect>
<text class="brklbl" x="1174.0" y="67">&#215;2 more</text>
<rect class="brk" x="1161.0" y="72" width="10" height="248"><title>loop at power_rabi.py:24</title></rect>
<text class="brklbl" x="1174.0" y="67">&#215;98 more</text>
<text class="note" x="14" y="350">A align  P pause  ? run-time branch  f IF update  φ frame  shaded = ADC window  hatched = loop truncated  zigzag = idle time collapsed (axis is not linear there)</text>
<text class="note" x="14" y="364">Traces are pulse envelopes (--modulate draws the IF-mixed output). Timing is the ideal QUA model: no compiler overhead, no analog filter delay.</text>
</svg>